#!OML:ASF H:\LiuWeirdWalks\Patient Classification 1\Patient 1\Session 1\male.ASF
:FULLY-SPECIFIED
:DEGREES
3165
root 0.871264 17.8802 -31.5684 12.3795 17.4716 7.47192
lowerback 14.1029 1.19869 -2.88285
upperback 1.63422 2.01 10.8848
thorax -6.72243 1.30566 13.3871
lowerneck -27.0215 0.46158 5.0735
upperneck 24.3812 0.917462 -7.83593
head 12.6604 -0.213221 -3.71824
rclavicle 4.45278e-014 -3.81667e-014
rhumerus -49.6737 -22.6835 -33.6452
rradius 32.7817
rwrist -14.2697
rhand -17.1188 -6.16325
rfingers 7.12502
rthumb 9.12074 -35.946
lclavicle 4.45278e-014 -3.81667e-014
lhumerus -40.0729 -4.86872 84.3841
lradius 58.1835
lwrist 13.3273
lhand -14.1623 -1.06007
lfingers 7.12502
lthumb 11.9726 28.5775
rfemur -29.4614 -13.697 7.0057
rtibia 44.5745
rfoot -10.8501 -22.8329
rtoes -16.0862
lfemur -12.3916 4.8038 -32.3307
ltibia 19.3665
lfoot -10.4325 18.9197
ltoes -6.36039
3166
root 0.875084 17.8843 -31.5542 12.4272 16.9587 7.41077
lowerback 14.0768 1.17346 -2.76549
upperback 1.58842 1.99868 10.9284
thorax -6.7532 1.29985 13.37
lowerneck -27.1856 0.475807 5.16599
upperneck 24.2725 0.900777 -7.88938
head 12.6478 -0.222573 -3.75679
rclavicle -2.38542e-014 -5.40694e-014
rhumerus -49.7896 -22.7991 -33.7346
rradius 32.6324
rwrist -13.9355
rhand -16.97 -6.02894
rfingers 7.12502
rthumb 9.26432 -35.8054
lclavicle -2.38542e-014 -5.40694e-014
lhumerus -40.1092 -5.12206 84.564
lradius 58.2826
lwrist 13.2611
lhand -13.935 -0.967499
lfingers 7.12502
lthumb 12.1918 28.6572
rfemur -29.1594 -13.5202 7.06082
rtibia 43.6723
rfoot -11.0902 -22.5556
rtoes -18.6035
lfemur -12.4234 4.98755 -32.3581
ltibia 19.2948
lfoot -10.3668 19.2282
ltoes -6.41427
3167
root 0.877042 17.8884 -31.5393 12.4754 16.4692 7.35245
lowerback 14.0477 1.15038 -2.65198
upperback 1.54586 1.98914 10.9694
thorax -6.7792 1.2946 13.3517
lowerneck -27.4092 0.43816 5.15277
upperneck 24.3023 0.829035 -7.84146
head 12.6963 -0.252605 -3.75398
rclavicle 1.27222e-014 -9.22361e-014
rhumerus -49.9267 -22.8669 -33.8628
rradius 32.5163
rwrist -13.6444
rhand -16.8101 -5.84223
rfingers 7.12502
rthumb 9.41855 -35.6118
lclavicle 1.27222e-014 -9.22361e-014
lhumerus -40.1446 -5.40883 84.7593
lradius 58.3572
lwrist 13.1558
lhand -13.695 -1.0011
lfingers 7.12502
lthumb 12.4232 28.6097
rfemur -28.8579 -13.3237 7.12663
rtibia 42.7561
rfoot -11.2928 -22.4159
rtoes -20.8504
lfemur -12.4526 5.16698 -32.3791
ltibia 19.2269
lfoot -10.2925 19.5288
ltoes -6.48723
3168
root 0.877318 17.8923 -31.5241 12.525 16.0085 7.2923
lowerback 14.0256 1.12756 -2.52545
upperback 1.5117 1.98144 11.0083
thorax -6.7999 1.28918 13.3219
lowerneck -27.6486 0.385632 5.08367
upperneck 24.3353 0.744134 -7.74233
head 12.7477 -0.286685 -3.72439
rclavicle -1.74931e-014 -1.08139e-013
rhumerus -50.0643 -22.8992 -34.0371
rradius 32.4373
rwrist -13.4468
rhand -16.6518 -5.6788
rfingers 7.12502
rthumb 9.57131 -35.4414
lclavicle -1.74931e-014 -1.08139e-013
lhumerus -40.1535 -5.71862 84.9659
lradius 58.4162
lwrist 13.0362
lhand -13.4497 -1.07181
lfingers 7.12502
lthumb 12.6597 28.5245
rfemur -28.563 -13.1214 7.21174
rtibia 41.8657
rfoot -11.4788 -22.3596
rtoes -22.7641
lfemur -12.4875 5.33319 -32.3885
ltibia 19.167
lfoot -10.1972 19.8263
ltoes -6.56981
3169
root 0.876319 17.8961 -31.5087 12.5786 15.5613 7.22961
lowerback 14.0182 1.10822 -2.39857
upperback 1.4805 1.97932 11.0525
thorax -6.82722 1.28689 13.2976
lowerneck -27.8497 0.392766 5.06182
upperneck 24.2686 0.735101 -7.69034
head 12.7584 -0.289081 -3.70299
rclavicle 3.02153e-014 -6.36111e-014
rhumerus -50.1764 -22.936 -34.2236
rradius 32.3626
rwrist -13.2775
rhand -16.4694 -5.51903
rfingers 7.12502
rthumb 9.74734 -35.2735
lclavicle 3.02153e-014 -6.36111e-014
lhumerus -40.1419 -6.03002 85.1925
lradius 58.4484
lwrist 12.9133
lhand -13.1888 -1.24813
lfingers 7.12502
lthumb 12.9112 28.3325
rfemur -28.288 -12.9091 7.31342
rtibia 41.0291
rfoot -11.6547 -22.3341
rtoes -24.4545
lfemur -12.541 5.5044 -32.3903
ltibia 19.1314
lfoot -10.1112 20.1165
ltoes -6.62945
3170
root 0.874363 17.9 -31.4933 12.6465 15.1255 7.1702
lowerback 14.0185 1.08767 -2.2702
upperback 1.44563 1.97627 11.0943
thorax -6.86251 1.28445 13.2701
lowerneck -28.0025 0.40583 5.04457
upperneck 24.1465 0.736274 -7.65241
head 12.7385 -0.287953 -3.68304
rclavicle 1.74931e-014 -2.54444e-014
rhumerus -50.2635 -22.9573 -34.4472
rradius 32.3084
rwrist -13.1813
rhand -16.282 -5.3788
rfingers 7.12502
rthumb 9.92813 -35.1247
lclavicle 1.74931e-014 -2.54444e-014
lhumerus -40.1318 -6.33706 85.427
lradius 58.4724
lwrist 12.7874
lhand -12.9251 -1.50655
lfingers 7.12502
lthumb 13.1654 28.0578
rfemur -28.0486 -12.6796 7.41867
rtibia 40.2698
rfoot -11.8128 -22.304
rtoes -25.9023
lfemur -12.6192 5.6559 -32.3922
ltibia 19.1138
lfoot -10.0259 20.4168
ltoes -6.66186
